<svg width="720" height="240" viewBox="0 0 720 240" fill="none" xmlns="http://www.w3.org/2000/svg">
<g clip-path="url(#clip0_46_163)">
<path d="M581.3 72.9C578.33 73.7582 575.626 75.3547 573.441 77.5405C571.255 79.7264 569.658 82.4303 568.8 85.4L555 133.4L551.6 121.3C550.632 117.905 548.355 115.034 545.27 113.318C542.185 111.602 538.545 111.182 535.15 112.15C531.755 113.118 528.884 115.395 527.168 118.48C525.452 121.565 525.032 125.205 526 128.6L533.9 156.1C534.716 158.848 536.398 161.259 538.696 162.974C540.993 164.689 543.783 165.615 546.65 165.615C549.517 165.615 552.307 164.689 554.604 162.974C556.902 161.259 558.584 158.848 559.4 156.1L572.8 109.4L585.2 152.5C586.252 156.32 588.53 159.69 591.682 162.091C594.834 164.492 598.687 165.793 602.65 165.793C606.613 165.793 610.466 164.492 613.618 162.091C616.77 159.69 619.048 156.32 620.1 152.5L646.1 61.9L670.6 147.5C672.653 153.669 677.011 158.807 682.764 161.838C688.516 164.869 695.217 165.559 701.467 163.764C707.716 161.969 713.03 157.828 716.298 152.207C719.565 146.585 720.533 139.919 719 133.6L688.5 27.1C687.007 21.8184 683.831 17.1686 679.454 13.8572C675.077 10.5459 669.739 8.75401 664.25 8.75401C658.762 8.75401 653.423 10.5459 649.046 13.8572C644.669 17.1686 641.493 21.8184 640 27.1L613.5 120L603.5 85.7C602.235 81.0704 599.192 77.1279 595.035 74.7307C590.877 72.3334 585.941 71.6754 581.3 72.9Z" fill="white"/>
<path d="M510.8 151.1V151.7C510.8 158.6 509.3 164.2 498 164.2C486.7 164.2 485.2 158.6 485.2 151.7V151.1C485.2 144.2 486.7 138.6 498 138.6C509.3 138.6 510.8 144.2 510.8 151.1ZM477.2 238.6C470.2 238.92 463.317 236.72 457.8 232.4C454.496 228.884 451.99 224.696 450.454 220.123C448.918 215.549 448.388 210.697 448.9 205.9V163.3H436.2C429.7 163.3 428.1 162.1 428.1 151.5C428.1 140.9 430 140 436.2 140H448.7V123C448.7 115.2 450.1 113 462.9 113C475.7 113 477.1 115 477.1 123V203C477.1 211.3 477.9 213 480.6 214.9C483.3 216.8 492.1 215.6 498.8 214.9C503.9 214.1 504.2 216.2 505.6 223.9C507 231.6 506.7 234.5 501.7 235.7C493.679 237.646 485.454 238.619 477.2 238.6ZM352.6 164C347.5 165 347.1 162.9 345.5 155.2C343.9 147.5 343.9 144.6 348.9 143.3C359.873 140.074 371.263 138.49 382.7 138.6C389.368 137.997 396.055 139.52 401.803 142.951C407.552 146.382 412.066 151.545 414.7 157.7C417.907 167.527 419.031 177.914 418 188.2V224.1C418.121 226.268 417.532 228.417 416.323 230.221C415.114 232.025 413.351 233.387 411.3 234.1C401.376 238.174 390.726 240.182 380 240C356.2 240 337.3 232.9 337.3 209.3C337.3 185.7 353.7 178.4 376.6 178.4C381.743 178.332 386.885 178.565 392 179.1V173.8C392 165.1 387.7 159.9 376.3 160C368.292 160.585 360.357 161.924 352.6 164ZM380.9 220C384.748 220.016 388.57 219.374 392.2 218.1C392.265 218.013 392.3 217.908 392.3 217.8C392.3 217.692 392.265 217.587 392.2 217.5V199C392.2 198.841 392.137 198.688 392.024 198.576C391.912 198.463 391.759 198.4 391.6 198.4C387.637 197.714 383.622 197.379 379.6 197.4C369.6 197.4 363.7 199.9 363.7 209C363.7 218.1 370 220 380.9 220ZM316.7 231.7C309.211 237.137 300.153 239.981 290.9 239.8C280.397 239.633 269.979 237.879 260 234.6C254.8 233 254.8 231.6 255.9 223.6C257 215.6 257.9 212.4 262.7 213.6C271.272 215.96 280.042 217.533 288.9 218.3C294.4 218.3 299.4 216.1 299.7 210.2C300 204.3 294.9 200.2 284.3 197.7C272.2 194.3 256.3 188.5 255.7 167.7C255.7 151.3 268 138.3 289 138.3C298.769 138.161 308.486 139.752 317.7 143C322.8 144.4 322.9 147.2 321.2 154.9C319.5 162.6 319.2 164.9 314.1 163.7C306.772 161.435 299.168 160.19 291.5 160C287.3 160 282.6 162.3 282.6 167.3C282.6 172.3 288.9 174.7 295.7 177.3C303.572 179.585 311.007 183.168 317.7 187.9C320.569 190.253 322.856 193.238 324.382 196.62C325.909 200.002 326.634 203.692 326.5 207.4C326.937 211.969 326.276 216.577 324.571 220.838C322.866 225.1 320.168 228.893 316.7 231.9V231.7ZM174.1 164C168.9 165 168.6 162.9 166.9 155.2C165.2 147.5 165.4 144.6 170.4 143.3C181.368 140.051 192.762 138.466 204.2 138.6C210.856 137.987 217.534 139.508 223.269 142.941C229.003 146.375 233.497 151.544 236.1 157.7C239.566 167.471 240.896 177.871 240 188.2V224.1C240.121 226.268 239.532 228.417 238.323 230.221C237.114 232.025 235.351 233.387 233.3 234.1C223.446 238.182 212.866 240.223 202.2 240.1C178.3 240.1 159.5 233 159.5 209.4C159.5 185.8 175.8 178.5 198.8 178.5C203.943 178.432 209.085 178.665 214.2 179.2V173.9C214.2 165.2 209.9 160 198.4 160.1C190.193 160.615 182.056 161.921 174.1 164ZM202.4 220C206.215 220.017 210.004 219.374 213.6 218.1C213.741 218.076 213.869 218.003 213.961 217.892C214.053 217.782 214.102 217.643 214.1 217.5V199C214.1 198.841 214.037 198.688 213.924 198.576C213.812 198.463 213.659 198.4 213.5 198.4C209.537 197.714 205.522 197.379 201.5 197.4C192 197.4 185.6 199.9 185.6 209C185.6 218.1 191.5 220 202.4 220ZM128.3 238.4C115.5 238.4 114.1 236.4 114.1 228.4V149.4C114.1 141.6 115.5 139.4 128.3 139.4C141.1 139.4 142.5 141.3 142.5 149.4V228.8C142.5 236.6 141.1 238.6 128.3 238.6V238.4ZM90.0001 112.7C78.1001 112.7 76.4001 114.7 74.4001 122.7L51.6001 208.7L28.6001 122.5C26.6001 114.7 24.9001 112.5 12.9001 112.5C0.900104 112.5 -1.29989 114.4 0.600105 122.5L31.1001 228.8C33.7001 236.6 38.8001 238.8 51.6001 238.8C64.4001 238.8 69.6001 236.8 72.2001 228.8L102.7 122.4C104.6 114.6 102.2 112.7 90.0001 112.7Z" fill="white"/>
</g>
<defs>
<clipPath id="clip0_46_163">
<rect width="720" height="240" fill="white"/>
</clipPath>
</defs>
</svg>
