<svg width="40" height="32" viewBox="0 0 40 32" fill="none" xmlns="http://www.w3.org/2000/svg">
<path d="M11.5842 13.0711C10.9791 13.246 10.4281 13.5713 9.98266 14.0167C9.53726 14.4621 9.21194 15.0131 9.03706 15.6182L6.22501 25.3992L5.53219 22.9336C5.33493 22.2419 4.87096 21.6568 4.24233 21.3071C3.6137 20.9575 2.87191 20.8719 2.18015 21.0691C1.4884 21.2664 0.903335 21.7304 0.553672 22.359C0.20401 22.9876 0.118389 23.7294 0.315647 24.4211L1.92544 30.0249C2.0917 30.5849 2.43445 31.0762 2.90263 31.4256C3.37081 31.7749 3.93935 31.9637 4.52353 31.9637C5.1077 31.9637 5.67623 31.7749 6.14441 31.4256C6.61259 31.0762 6.95535 30.5849 7.1216 30.0249L9.85214 20.5087L12.3789 29.2913C12.5934 30.0698 13.0574 30.7564 13.6997 31.2457C14.342 31.735 15.1272 32 15.9347 32C16.7422 32 17.5274 31.735 18.1697 31.2457C18.812 30.7564 19.2761 30.0698 19.4905 29.2913L24.7886 10.8296L29.7809 28.2724C30.1993 29.5296 31.0874 30.5764 32.2596 31.194C33.4317 31.8116 34.7973 31.9523 36.0707 31.5866C37.3442 31.2208 38.427 30.377 39.0928 29.2316C39.7586 28.0861 39.9559 26.7276 39.6435 25.44L33.4285 3.73838C33.1243 2.66215 32.477 1.71465 31.5851 1.03989C30.6932 0.365128 29.6054 0 28.487 0C27.3686 0 26.2808 0.365128 25.3889 1.03989C24.497 1.71465 23.8497 2.66215 23.5456 3.73838L18.1456 22.6687L16.1079 15.6794C15.8501 14.736 15.2301 13.9326 14.3829 13.4441C13.5357 12.9556 12.5298 12.8216 11.5842 13.0711Z" fill="url(#paint0_linear_18_116)"/>
<defs>
<linearGradient id="paint0_linear_18_116" x1="0.356402" y1="24.3804" x2="36.7907" y2="14.6198" gradientUnits="userSpaceOnUse">
<stop stop-color="#202E39"/>
<stop offset="0.04" stop-color="#1E323F"/>
<stop offset="0.1" stop-color="#1A3C4F"/>
<stop offset="0.16" stop-color="#134E6A"/>
<stop offset="0.23" stop-color="#096690"/>
<stop offset="0.28" stop-color="#007EB4"/>
<stop offset="0.34" stop-color="#0084BC"/>
<stop offset="0.43" stop-color="#0093D2"/>
<stop offset="0.48" stop-color="#009FE3"/>
<stop offset="0.51" stop-color="#18A6CD"/>
<stop offset="0.57" stop-color="#44B3A4"/>
<stop offset="0.63" stop-color="#69BE81"/>
<stop offset="0.69" stop-color="#88C765"/>
<stop offset="0.76" stop-color="#A0CE4F"/>
<stop offset="0.83" stop-color="#B1D33F"/>
<stop offset="0.9" stop-color="#BBD636"/>
<stop offset="1" stop-color="#BED733"/>
</linearGradient>
</defs>
</svg>
